<svg width="127" height="93" viewBox="0 0 127 93" fill="none" xmlns="http://www.w3.org/2000/svg">
<path d="M109.031 41.8901C120.141 30.7802 126.383 15.7118 126.383 0L67.1412 5.98646e-06L67.1412 59.2416C82.8531 59.2416 97.9214 53.0001 109.031 41.8901Z" fill="#A27FFF"/>
<path d="M67.1414 59.2416C67.1414 77.5751 52.2792 92.4373 33.9457 92.4373C15.6122 92.4373 0.75 77.5751 0.75 59.2416C0.75 40.9081 15.6122 26.0459 33.9457 26.0459C52.2792 26.0459 67.1414 40.9081 67.1414 59.2416ZM19.1548 59.2416C19.1548 67.4104 25.7769 74.0326 33.9457 74.0326C42.1145 74.0326 48.7367 67.4104 48.7367 59.2416C48.7367 51.0728 42.1145 44.4507 33.9457 44.4507C25.7769 44.4507 19.1548 51.0728 19.1548 59.2416Z" fill="#1EBCB4"/>
</svg>
