<svg width="155" height="389" viewBox="0 0 155 389" fill="none" xmlns="http://www.w3.org/2000/svg">
<path d="M0 163.023C-3.52347e-07 192.571 5.8198 221.829 17.1271 249.127C28.4344 276.425 45.0078 301.229 65.901 322.122C86.7941 343.016 111.598 359.589 138.896 370.896C166.194 382.204 195.453 388.023 225 388.023L225 232.08C215.931 232.08 206.951 230.294 198.573 226.824C190.195 223.353 182.582 218.266 176.169 211.854C169.757 205.441 164.67 197.829 161.2 189.45C157.729 181.072 155.943 172.092 155.943 163.023L0 163.023Z" fill="#1E5DBC"/>
<path d="M73.7305 162.42C95.2687 162.42 115.925 153.864 131.154 138.634C146.384 123.404 154.94 102.748 154.94 81.2098C154.94 59.6716 146.384 39.0156 131.154 23.7858C115.925 8.55602 95.2687 4.19364e-06 73.7305 0L73.7305 81.2098L73.7305 162.42Z" fill="#FFB201"/>
</svg>
