<svg width="28" height="28" viewBox="0 0 28 28" fill="none" xmlns="http://www.w3.org/2000/svg">
<path d="M9.33398 4.66667H19.834L17.5007 8.75L19.834 12.8333H9.33398V4.66667Z" fill="white"/>
<path d="M22.9222 20.8627V18.4314C22.9222 17.8791 22.4745 17.4314 21.9222 17.4314H9.883V13.3137H19.5909C20.3896 13.3137 20.866 12.4236 20.4229 11.759L18.2568 8.5098L20.4229 5.26058C20.866 4.59603 20.3896 3.70588 19.5909 3.70588H9.883V3.01961C9.883 2.64059 9.57575 2.33333 9.19673 2.33333C8.81771 2.33333 8.51046 2.64059 8.51046 3.01961V3.70588V13.3137V17.4314H6.07908C5.5268 17.4314 5.07908 17.8791 5.07908 18.4314V20.8627H3.33399C2.7817 20.8627 2.33398 21.3105 2.33398 21.8627V24.6667C2.33398 25.219 2.7817 25.6667 3.33398 25.6667H24.6673C25.2196 25.6667 25.6673 25.2189 25.6673 24.6667V21.8627C25.6673 21.3105 25.2196 20.8627 24.6673 20.8627H22.9222ZM18.8948 5.07843L16.6073 8.5098L18.8948 11.9412H9.883V5.07843H18.8948ZM6.45163 18.8039H21.5497V20.8627H6.45163V18.8039ZM24.2948 24.2941H3.70653V22.2353H5.07908H22.9222H24.2948V24.2941Z" fill="#4640DD"/>
</svg>
