<svg width="28" height="28" viewBox="0 0 28 28" fill="none" xmlns="http://www.w3.org/2000/svg">
<rect x="3.5" y="11.6667" width="2.33333" height="7" fill="white"/>
<circle cx="14.0007" cy="23.3333" r="1.16667" fill="white"/>
<rect x="22.168" y="11.6667" width="2.33333" height="7" fill="white"/>
<path d="M24.9837 10.3876H22.7119C22.362 5.88779 18.5887 2.33333 14.0007 2.33333C9.41264 2.33333 5.6393 5.88779 5.28943 10.3876H3.01758C2.64005 10.3876 2.33398 10.6936 2.33398 11.0712V18.3932C2.33398 18.7708 2.64005 19.0768 3.01758 19.0768H5.94641C6.32394 19.0768 6.63001 18.7708 6.63001 18.3932V11.0712C6.63001 7.00697 9.93646 3.70052 14.0007 3.70052C18.0648 3.70052 21.3713 7.00697 21.3713 11.0712V18.3932C21.3713 20.8425 19.3787 22.8351 16.9294 22.8351H16.0365C15.7502 21.9849 14.9461 21.3707 14.0007 21.3707C12.8163 21.3707 11.8526 22.3343 11.8526 23.5187C11.8526 24.7031 12.8163 25.6667 14.0007 25.6667C14.9461 25.6667 15.7502 25.0524 16.0365 24.2023H16.9294C19.9012 24.2023 22.3586 21.9589 22.6981 19.0768H24.9837C25.3612 19.0768 25.6673 18.7708 25.6673 18.3932V11.0712C25.6673 10.6936 25.3612 10.3876 24.9837 10.3876ZM5.26282 17.7096H3.70117V11.7548H5.26282V17.7096ZM14.0007 24.2995C13.5701 24.2995 13.2198 23.9492 13.2198 23.5187C13.2198 23.0881 13.5701 22.7379 14.0007 22.7379C14.4312 22.7379 14.7815 23.0881 14.7815 23.5187C14.7815 23.9492 14.4312 24.2995 14.0007 24.2995ZM24.3001 17.7096H22.7385V11.7548H24.3001V17.7096Z" fill="#1EBCB4"/>
<path d="M19.0223 10.4396C18.767 10.3338 18.4729 10.3922 18.2774 10.5877C18.2773 10.5877 16.143 12.7213 15.1311 13.7325C14.6766 14.1894 14.416 14.8207 14.416 15.4644C14.416 15.8419 14.7221 16.148 15.0996 16.148H18.0771V17.661C18.0771 18.0385 18.3831 18.3446 18.7607 18.3446C19.1382 18.3446 19.4443 18.0385 19.4443 17.661V16.148H19.4928C19.8704 16.148 20.1764 15.8419 20.1764 15.4644C20.1764 15.0869 19.8704 14.7808 19.4928 14.7808H19.4443V11.0712C19.4443 10.7947 19.2777 10.5455 19.0223 10.4396ZM18.0771 14.7808H16.025C16.0483 14.752 16.073 14.7244 16.0991 14.6981C16.6111 14.1864 17.4118 13.3861 18.0771 12.7211V14.7808Z" fill="#1EBCB4"/>
<path d="M13.2196 17.661C13.2196 17.2835 12.9135 16.9774 12.536 16.9774H9.80036C9.82356 16.9486 9.84826 16.9209 9.87437 16.8947C10.8849 15.8849 13.0193 13.7512 13.0193 13.7512C13.1475 13.623 13.2196 13.4491 13.2196 13.2678V12.9017C13.2196 11.5154 12.0918 10.3876 10.7055 10.3876C9.30548 10.3876 8.19141 11.522 8.19141 12.9009V12.9016C8.19141 13.2792 8.49747 13.5849 8.875 13.5849C9.25253 13.5849 9.55859 13.2784 9.55859 12.9009C9.55859 12.2743 10.0631 11.7548 10.7055 11.7548C11.3379 11.7548 11.8524 12.2693 11.8524 12.9017V12.9845C11.2981 13.5387 9.73036 15.1058 8.90649 15.9291C8.45199 16.3861 8.19141 17.0174 8.19141 17.661C8.19141 18.0385 8.49747 18.3446 8.875 18.3446H12.536C12.9135 18.3446 13.2196 18.0386 13.2196 17.661Z" fill="#1EBCB4"/>
</svg>
