<svg width="232" height="232" viewBox="0 0 232 232" fill="none" xmlns="http://www.w3.org/2000/svg">
<path d="M81.8628 149.68C103.574 171.392 115.771 200.838 115.771 231.543L0.000114441 231.543L0.000137329 115.772C30.7046 115.772 60.1515 127.969 81.8628 149.68Z" fill="#FFB201"/>
<path d="M51.1617 186.349C64.6643 198.351 72.25 214.63 72.25 231.604L0.25 231.604L0.250008 167.604C19.3456 167.604 37.6591 174.346 51.1617 186.349Z" fill="#F5F9FE"/>
<path d="M33.9088 33.9086C55.6201 12.1973 85.067 -2.68427e-06 115.771 0L115.771 115.771L9.15527e-05 115.771C9.91821e-05 85.0669 12.1974 55.62 33.9088 33.9086Z" fill="#1EBCB4"/>
<path d="M197.634 149.68C219.346 171.392 231.543 200.838 231.543 231.543L115.772 231.543L115.772 115.772C146.476 115.772 175.923 127.969 197.634 149.68Z" fill="#A27FFF"/>
</svg>
