<svg width="28" height="24" viewBox="0 0 28 24" fill="none" xmlns="http://www.w3.org/2000/svg">
<rect width="28" height="24" fill="#E5E5E5"/>
<g clip-path="url(#clip0_3757_51448)">
<rect width="1440" height="7464" transform="translate(-1070 -4932)" fill="white"/>
<g clip-path="url(#clip1_3757_51448)">
<rect width="1440" height="752" transform="translate(-1070 -420)" fill="white"/>
<rect x="-434" y="-420" width="804" height="752" fill="#F5F9FE"/>
<rect opacity="0.3" x="-14" y="-16" width="56" height="56" rx="28" fill="#4EB2F9"/>
<g clip-path="url(#clip2_3757_51448)">
<path d="M11.084 7.91666H16.9173V10.25L14.0007 11.4167L11.084 10.25V7.91666Z" fill="white"/>
<path d="M11.0833 2.08333L14 1.5L16.3333 2.08333L17.5 5H10.5L11.0833 2.08333Z" fill="white"/>
<path d="M10.5 15.5H17.5V19L14 22.5L10.5 19V15.5Z" fill="white"/>
<path d="M15.7227 6.9433C15.9492 6.9433 16.1328 6.75966 16.1328 6.53314V6.41064C16.1328 6.18413 15.9492 6.00049 15.7227 6.00049C15.4961 6.00049 15.3125 6.18413 15.3125 6.41064V6.53314C15.3125 6.75972 15.4961 6.9433 15.7227 6.9433Z" fill="#4EB2F9" stroke="#4EB2F9" stroke-width="0.3"/>
<path d="M26.3061 10.9982C26.6696 10.4619 26.8823 9.81517 26.8823 9.11971C26.8823 7.25257 25.3501 5.73674 23.4779 5.76523C21.7106 5.79214 20.2506 7.21434 20.1787 8.98037C20.1484 9.72521 20.3624 10.4196 20.7469 10.9901C20.292 11.2531 19.8225 11.6557 19.4114 12.3733C18.5637 11.9867 17.5651 11.7763 16.7146 11.5973C16.5118 11.5546 16.3161 11.5134 16.1332 11.4721V11.1261C17.0395 10.5822 17.7066 9.76705 17.7066 9.00033C17.7066 8.91026 17.6988 8.82888 17.6845 8.755C17.7216 8.67056 17.7558 8.58612 17.7871 8.50185C18.6785 8.40937 19.3188 7.90745 19.3188 7.26345L19.3219 6.35493C19.3219 5.89709 18.9565 5.5385 18.4901 5.5385H18.0342L18.0353 4.56298C18.0369 3.45387 17.5955 2.51806 16.7589 1.85666C16.0366 1.28562 15.0664 0.964766 14.027 0.953227C14.024 0.953172 14.0209 0.953172 14.0179 0.953227C12.9785 0.964766 12.0083 1.28562 11.286 1.85666C10.4494 2.51806 10.008 3.45387 10.0096 4.56238V5.5385H9.5532C9.08677 5.5385 8.7214 5.89714 8.7214 6.35635L8.72452 7.2634C8.72654 7.90751 9.36671 8.40861 10.2561 8.50158C10.2875 8.58618 10.3218 8.67083 10.3591 8.7556C10.3447 8.82943 10.3367 8.91037 10.3367 9.00038C10.3367 9.76694 11.0038 10.5819 11.9102 11.1258V11.4721C11.7272 11.5134 11.5316 11.5547 11.3288 11.5973C10.4667 11.7788 9.45257 11.9925 8.59764 12.3893C8.18371 11.6619 7.71061 11.2559 7.25271 10.9908C7.63755 10.4201 7.85176 9.72515 7.8213 8.97987C7.74911 7.21336 6.28808 5.79121 4.5203 5.76523C2.64802 5.73767 1.11617 7.25312 1.11617 9.11965C1.11617 9.81539 1.32912 10.4623 1.69307 10.9987C0.65018 11.6417 0 12.7813 0 14.0275V15.8712C0 16.5576 0.556445 17.114 1.24283 17.114H4.93194C5.15654 17.114 5.35238 16.941 5.3591 16.7165C5.3661 16.4843 5.17984 16.2937 4.94911 16.2937H1.24261C1.00937 16.2937 0.820312 16.1047 0.820312 15.8714V14.0275C0.820312 13.0217 1.37167 12.1062 2.24492 11.6269C2.40887 11.7727 2.58721 11.9024 2.77747 12.0142L4.15833 14.9318C4.2262 15.0751 4.37057 15.1665 4.52905 15.1665H4.53075C4.68951 15.1665 4.83383 15.0743 4.90049 14.9303L6.28622 11.938C6.43234 11.8435 6.57076 11.7382 6.70015 11.6228C7.08936 11.8195 7.5058 12.1264 7.8855 12.7959C7.30384 13.2081 6.88078 13.7639 6.77266 14.5395L6.18259 18.2498C6.1792 18.271 6.1775 18.2924 6.1775 18.3138V20.1759C6.1775 20.7726 6.66203 21.2577 7.25758 21.2577H10.5066C10.9112 21.2577 11.2831 21.1133 11.573 20.8727L13.498 22.7807C13.633 22.9158 13.8123 23.0414 14.0102 23.0469C14.2103 23.0523 14.4134 22.9216 14.5469 22.7807L16.4358 20.9077C16.7191 21.1269 17.074 21.2577 17.4595 21.2577H20.7069C21.303 21.2577 21.7886 20.7726 21.7886 20.1759V18.3138C21.7886 18.3103 21.7866 18.2726 21.7845 18.2575L21.2714 14.5438C21.1624 13.7522 20.7256 13.1891 20.1269 12.774C20.5025 12.1195 20.9141 11.8166 21.2992 11.6222C21.4288 11.7379 21.5675 11.8433 21.7138 11.938L23.0996 14.9303C23.1663 15.0743 23.3106 15.1665 23.4693 15.1665H23.471C23.6295 15.1665 23.7739 15.0752 23.8417 14.9318L25.2229 12.0136C25.4128 11.9019 25.5908 11.7722 25.7545 11.6265C26.6281 12.1058 27.1797 13.0214 27.1797 14.0275V15.8712C27.1797 16.1042 26.9895 16.2937 26.7559 16.2937H23.0665C22.8419 16.2937 22.6461 16.4668 22.6394 16.6912C22.6324 16.9235 22.8186 17.114 23.0494 17.114H26.7559C27.4419 17.114 28 16.5565 28 15.8712V14.0275C28 12.7809 27.3494 11.6411 26.3061 10.9982V10.9982ZM18.0338 7.19378V6.35876H18.4902C18.4952 6.35876 18.499 6.35952 18.5016 6.3604L18.4985 7.26198C18.4985 7.37912 18.3135 7.53656 18.0059 7.6263C18.0243 7.48116 18.0338 7.3369 18.0338 7.19378V7.19378ZM9.54483 7.26061L9.54177 6.3604C9.54434 6.35952 9.54816 6.35876 9.5532 6.35876H10.0096V7.19378C10.0096 7.33668 10.019 7.48078 10.0373 7.6257C9.73027 7.53558 9.54521 7.37797 9.54483 7.26061V7.26061ZM4.52501 13.789L3.87756 12.421C4.07006 12.4555 4.26787 12.4745 4.4701 12.4745C4.7093 12.4745 4.94255 12.4489 5.16775 12.401L4.52501 13.789ZM6.99344 9.35164C6.88532 10.5615 5.91128 11.536 4.70138 11.6439C3.12271 11.7846 1.80573 10.4669 1.94687 8.88767C2.05499 7.67776 3.02898 6.70329 4.23894 6.59539C5.81755 6.45468 7.13459 7.77237 6.99344 9.35164ZM10.83 4.56167C10.8272 2.67227 12.482 1.7923 14.0225 1.77348C15.5629 1.7923 17.2178 2.67227 17.215 4.56184L17.2145 4.99004C16.4352 4.4687 15.2902 4.15835 14.0298 4.15835C14.0248 4.15835 14.02 4.15835 14.0151 4.15835C12.7545 4.15835 11.6093 4.46848 10.8299 4.98944V4.56167H10.83ZM10.9731 8.06326C10.9651 8.0381 10.9577 8.01278 10.95 7.98751C10.8708 7.71698 10.83 7.45141 10.83 7.19378V6.07996C11.3439 5.416 12.6015 4.97724 14.0221 4.97866C14.0246 4.97861 14.0272 4.97866 14.0298 4.97866C15.4451 4.97866 16.7003 5.41709 17.2134 6.07996V7.19378C17.2134 7.47537 17.1649 7.76636 17.0704 8.06309C16.9428 8.00594 16.8108 7.95908 16.68 7.90997C15.5495 7.4787 14.78 7.30157 14.0242 7.2984C14.023 7.2984 14.0219 7.2984 14.0208 7.2984C13.2639 7.30151 12.494 7.4787 11.3644 7.90958C11.2333 7.9588 11.101 8.00594 10.9731 8.06326V8.06326ZM11.1571 9.00027C11.1571 8.9994 11.1571 8.99852 11.1571 8.9977C11.1573 8.92486 11.1997 8.8589 11.2649 8.82653C11.4103 8.75423 11.6558 8.67641 11.6558 8.67641C12.6864 8.28332 13.3722 8.12172 14.0225 8.11876C14.6718 8.12172 15.3572 8.28337 16.3887 8.6768C16.512 8.72312 16.6388 8.76583 16.7537 8.83107C16.8201 8.8688 16.8864 8.91709 16.8864 9.00027C16.8864 9.70487 15.4717 10.928 14.0225 10.9394C12.5725 10.928 11.1571 9.70487 11.1571 9.00027ZM15.3129 11.5164V11.7961C15.3129 12.1603 15.1911 12.4457 14.951 12.6444C14.7303 12.8271 14.4204 12.9277 14.0784 12.9277C13.5366 12.9277 12.7305 12.6263 12.7305 11.7961V11.5161C13.15 11.6675 13.59 11.7567 14.0197 11.7596H14.0225C14.0225 11.7596 14.0243 11.7596 14.0253 11.7596C14.4545 11.7567 14.8938 11.6677 15.3129 11.5164V11.5164ZM11.4978 12.4C11.6618 12.3655 11.8213 12.3319 11.9746 12.2981C12.2255 13.2433 13.176 13.748 14.0785 13.748C14.611 13.748 15.1066 13.5805 15.474 13.2763C15.7807 13.0226 15.9839 12.6902 16.0761 12.2997C16.2272 12.3329 16.3842 12.366 16.5456 12.3999C16.6623 12.4245 16.7811 12.4496 16.901 12.4753L14.8029 15.2715C14.5181 15.4072 14.2524 15.584 14.0219 15.7909C13.7911 15.584 13.5254 15.4073 13.2406 15.2715L11.1425 12.4753C11.2623 12.4496 11.3811 12.4245 11.4978 12.4V12.4ZM7.58341 14.6641C7.58384 14.6613 7.58428 14.6585 7.58466 14.6557C7.73905 13.5349 8.96448 13.016 10.2694 12.6786L11.994 14.9769C11.4174 14.9784 10.8473 15.1807 10.3836 15.6608C9.79185 16.2744 9.52662 17.1001 9.58787 17.9035H7.06825L7.58341 14.6641ZM10.9851 20.2901C10.8484 20.383 10.6837 20.4372 10.5066 20.4372H7.25758C7.1143 20.4372 6.99781 20.3201 6.99781 20.1758V18.7238H10.5066C10.5673 18.7238 10.6263 18.7304 10.6832 18.7424C11.0458 18.819 11.3247 19.1263 11.358 19.5042C11.3602 19.5294 11.3613 19.5545 11.3613 19.5802C11.3613 19.8755 11.212 20.1358 10.9851 20.2901ZM15.7829 19.5615C15.7802 19.8089 15.8313 20.0452 15.9255 20.2578L14.0224 22.1456L12.0619 20.2026C12.139 20.0101 12.1816 19.8001 12.1816 19.5802C12.1816 18.6555 11.4302 17.9035 10.5066 17.9035H10.4087C10.3452 17.3074 10.5339 16.6873 10.9736 16.2306C11.673 15.5066 12.7865 15.7811 13.4805 16.4078C13.5275 16.4494 13.5647 16.4855 13.5959 16.5144C13.7102 16.6227 13.8277 16.7343 14.0224 16.7343C14.216 16.7343 14.3325 16.6233 14.4457 16.5161C14.4769 16.4866 14.5152 16.4505 14.5638 16.4067C15.2573 15.7811 16.3707 15.5066 17.0696 16.2301C17.5098 16.6867 17.6985 17.3069 17.6351 17.9035H17.4941C16.5696 17.9035 15.793 18.6371 15.7829 19.5615V19.5615ZM20.9683 20.1758C20.9683 20.3195 20.8506 20.4372 20.7069 20.4372H17.4595C17.302 20.4372 17.1549 20.3945 17.028 20.3201C16.7754 20.1725 16.6053 19.8985 16.6031 19.5857V19.5802C16.6031 19.1383 16.9384 18.7741 17.3682 18.7287C17.3983 18.7255 17.4289 18.7238 17.4595 18.7238H20.9683V20.1758ZM20.4588 14.6558L20.9075 17.9036H18.4559C18.5166 17.1002 18.2514 16.2744 17.6597 15.6608C17.1961 15.1807 16.626 14.9784 16.0495 14.9769L17.774 12.6787C19.0789 13.016 20.3044 13.5349 20.4588 14.6558ZM23.475 13.789L22.8322 12.401C23.0574 12.4489 23.2907 12.4745 23.5299 12.4745C23.7322 12.4745 23.93 12.4555 24.1225 12.421L23.475 13.789ZM23.5298 11.6542C22.0688 11.6542 20.8926 10.4107 21.0034 8.92606C21.0959 7.68739 22.0948 6.68661 23.3334 6.5926C24.818 6.47994 26.062 7.65715 26.062 9.11971C26.062 10.5172 24.9261 11.6542 23.5298 11.6542Z" fill="#4EB2F9" stroke="#4EB2F9" stroke-width="0.3"/>
<path d="M12.3203 6.9433C12.5468 6.9433 12.7305 6.75966 12.7305 6.53314V6.41064C12.7305 6.18413 12.5468 6.00049 12.3203 6.00049C12.0938 6.00049 11.9102 6.18413 11.9102 6.41064V6.53314C11.9102 6.75972 12.0938 6.9433 12.3203 6.9433Z" fill="#4EB2F9" stroke="#4EB2F9" stroke-width="0.3"/>
</g>
</g>
</g>
<defs>
<clipPath id="clip0_3757_51448">
<rect width="1440" height="7464" fill="white" transform="translate(-1070 -4932)"/>
</clipPath>
<clipPath id="clip1_3757_51448">
<rect width="1440" height="752" fill="white" transform="translate(-1070 -420)"/>
</clipPath>
<clipPath id="clip2_3757_51448">
<rect width="28" height="28" fill="white" transform="translate(0 -2)"/>
</clipPath>
</defs>
</svg>
