<svg width="24" height="18" viewBox="0 0 24 18" fill="none" xmlns="http://www.w3.org/2000/svg">
<path d="M9.57049 4.05244L10.276 3.22748H9.19049H5.81896C5.71757 3.22748 5.63536 3.14527 5.63536 3.04389C5.63536 2.9425 5.71757 2.86029 5.81896 2.86029H10.6434C10.6479 2.86058 10.655 2.86099 10.6633 2.86129L10.6813 2.36162L10.9716 2.76873C16.035 -0.841616 23.1673 2.76813 23.1673 9.06402C23.1673 13.2997 19.7383 16.7861 15.4453 16.7862C13.8224 16.7862 12.2692 16.2852 10.9716 15.3595L10.8328 15.2605L10.6625 15.2669C10.6655 15.2668 10.6247 15.2668 10.5405 15.2669C10.4729 15.267 10.3771 15.2671 10.2537 15.2672L9.16073 15.2676C8.25926 15.2678 7.06146 15.2679 5.86253 15.268C3.70733 15.268 1.54873 15.2679 1.10122 15.2678L1.01758 15.2678C0.916194 15.2678 0.833984 15.1856 0.833984 15.0843C0.833984 14.9829 0.916194 14.9007 1.01758 14.9007H9.19053H10.2764L9.57045 14.0756C8.52771 12.8569 7.88267 11.3304 7.74978 9.70687L7.7122 9.24766H7.25145H3.28483C3.18345 9.24766 3.10124 9.16545 3.10124 9.06407C3.10124 8.96268 3.18345 8.88048 3.28483 8.88048H7.2515H7.71222L7.74983 8.42129C7.88301 6.79523 8.52975 5.26946 9.57049 4.05244ZM8.09048 9.06402C8.09048 13.1631 11.4142 16.4189 15.4453 16.4189C19.5241 16.4189 22.8001 13.1096 22.8001 9.06402C22.8001 2.593 15.0369 -0.69277 10.3825 3.72935C8.90553 5.13195 8.09048 7.02881 8.09048 9.06402Z" fill="#FFB201" stroke="#FFB201"/>
</svg>
