<svg width="32" height="32" viewBox="0 0 32 32" fill="none" xmlns="http://www.w3.org/2000/svg">
<rect width="32" height="32" fill="#E5E5E5"/>
<g clip-path="url(#clip0_3757_51448)">
<rect width="1440" height="7464" transform="translate(-660 -2177)" fill="white"/>
<rect width="1440" height="978" transform="translate(-660 -484)" fill="white"/>
<rect x="-24" y="-24" width="344" height="179" rx="2" fill="#F5F9FE"/>
<g clip-path="url(#clip1_3757_51448)">
<circle cx="16.0007" cy="5.33341" r="2.66667" fill="white"/>
<ellipse cx="3.33398" cy="8.66675" rx="2" ry="2" fill="white"/>
<circle cx="3.33398" cy="24.6667" r="2" fill="white"/>
<ellipse cx="17.3346" cy="28.0002" rx="2.66667" ry="2.66667" fill="white"/>
<circle cx="28.0007" cy="20.0002" r="2.66667" fill="white"/>
<ellipse cx="28.668" cy="8.66675" rx="2" ry="2" fill="white"/>
<ellipse cx="12" cy="17.3335" rx="4" ry="4" fill="white"/>
<path d="M29.463 16.1844V11.2907C30.5267 10.9055 31.2889 9.8854 31.2889 8.69046C31.2889 7.36509 30.3512 6.25501 29.1045 5.98766L25.839 0.269775L24.2086 1.20087L27.1251 6.30758C26.6607 6.58125 26.283 6.98647 26.0436 7.47192L18.9147 5.01538C18.5943 3.51616 17.2598 2.38824 15.6664 2.38824C14.0795 2.38824 12.7496 3.50715 12.4223 4.9973L6.05833 7.0033C5.49202 6.40001 4.68834 6.02208 3.79755 6.02208C2.08705 6.02208 0.695475 7.41366 0.695475 9.12415C0.695475 10.8346 2.08705 12.2262 3.79755 12.2262C4.18562 12.2262 4.55692 12.1539 4.89962 12.0233L7.69466 15.3604C7.32643 16.0344 7.11678 16.8069 7.11678 17.6276C7.11678 18.2251 7.22893 18.7967 7.4315 19.3238L4.96339 21.7285C4.48057 21.4557 3.92371 21.2991 3.33068 21.2991C1.49415 21.2991 0 22.7932 0 24.6298C0 26.1914 1.08048 27.5047 2.53301 27.8632L3.25615 31.7305L5.10163 31.3854L4.42644 27.7743C5.72614 27.3201 6.66131 26.0824 6.66131 24.6298C6.66131 24.0676 6.52075 23.5378 6.2738 23.0729L8.46618 20.9369C9.30765 21.7999 10.474 22.3437 11.7657 22.3694L14.3638 26.1272C13.9183 26.6926 13.6514 27.4051 13.6514 28.1791C13.6514 30.0108 15.1416 31.5011 16.9733 31.5011C18.8051 31.5011 20.2953 30.0109 20.2953 28.1791C20.2953 28.0755 20.2899 27.9732 20.2806 27.8719L27.5416 22.8636C27.8534 22.9557 28.183 23.006 28.5243 23.006C30.4408 23.006 32 21.4468 32 19.5303C32 17.9391 30.9248 16.5951 29.463 16.1844V16.1844ZM3.33068 26.083C2.52938 26.083 1.87746 25.4311 1.87746 24.6298C1.87746 23.8286 2.52938 23.1766 3.33068 23.1766C4.13199 23.1766 4.78384 23.8285 4.78384 24.6298C4.78384 25.4311 4.13192 26.083 3.33068 26.083ZM25.3461 18.1257L16.5328 16.8079C16.2226 15.035 14.9258 13.5978 13.2302 13.0856L15.1069 8.98403C15.2889 9.01507 15.4757 9.03209 15.6664 9.03209C17.0621 9.03209 18.2587 8.16646 18.7497 6.94429L25.8498 9.39094C26.0809 10.2725 26.7372 10.9835 27.5855 11.2907V16.1844C26.5829 16.4662 25.7627 17.1869 25.3461 18.1257V18.1257ZM28.5243 9.57762C28.0352 9.57762 27.6372 9.17966 27.6372 8.69052C27.6372 8.20138 28.0352 7.80342 28.5243 7.80342C29.0135 7.80342 29.4114 8.20138 29.4114 8.69052C29.4114 9.17966 29.0135 9.57762 28.5243 9.57762ZM15.6664 4.26565C16.4629 4.26565 17.111 4.91362 17.111 5.71017C17.111 6.50671 16.463 7.15469 15.6664 7.15469C14.8699 7.15469 14.2219 6.50671 14.2219 5.71017C14.2219 4.91362 14.87 4.26565 15.6664 4.26565V4.26565ZM12.5729 6.91832C12.7592 7.39363 13.0514 7.81612 13.4212 8.15588L11.2389 12.9255C10.3725 13.0395 9.57939 13.3879 8.9249 13.9052L6.37049 10.8554C6.70449 10.3606 6.89968 9.76474 6.89968 9.12415C6.89968 8.98553 6.88961 8.84923 6.87189 8.71536L12.5729 6.91832ZM2.57294 9.12415C2.57294 8.44889 3.12229 7.89954 3.79755 7.89954C4.47281 7.89954 5.02215 8.44889 5.02215 9.12415C5.02215 9.79941 4.47281 10.3488 3.79755 10.3488C3.12229 10.3488 2.57294 9.79941 2.57294 9.12415ZM8.99424 17.6276C8.99424 16.0469 10.2802 14.7608 11.861 14.7608C13.4418 14.7608 14.7277 16.0468 14.7277 17.6276C14.7277 19.2083 13.4417 20.4943 11.861 20.4943C10.2803 20.4943 8.99424 19.2083 8.99424 17.6276ZM16.9733 29.6236C16.1769 29.6236 15.5289 28.9756 15.5289 28.179C15.5289 27.3825 16.1769 26.7345 16.9733 26.7345C17.7698 26.7345 18.4179 27.3825 18.4179 28.179C18.4179 28.9756 17.7698 29.6236 16.9733 29.6236ZM16.9733 24.8571C16.5953 24.8571 16.2322 24.9215 15.8934 25.0383L13.7712 21.9687C15.1212 21.3724 16.1419 20.1649 16.4817 18.6986L25.0792 19.9841C25.1664 20.6495 25.4417 21.2565 25.8511 21.7489L19.5549 26.0916C18.9454 25.3393 18.0148 24.8571 16.9733 24.8571ZM28.5243 21.1285C27.643 21.1285 26.9261 20.4115 26.9261 19.5303C26.9261 18.649 27.6431 17.932 28.5243 17.932C29.4056 17.932 30.1226 18.649 30.1226 19.5303C30.1225 20.4116 29.4056 21.1285 28.5243 21.1285Z" fill="#1EBCB4"/>
</g>
</g>
<defs>
<clipPath id="clip0_3757_51448">
<rect width="1440" height="7464" fill="white" transform="translate(-660 -2177)"/>
</clipPath>
<clipPath id="clip1_3757_51448">
<rect width="32" height="32" fill="white"/>
</clipPath>
</defs>
</svg>
