<svg width="22" height="32" viewBox="0 0 22 32" fill="none" xmlns="http://www.w3.org/2000/svg">
<path d="M11.9375 0V7.55237C11.6296 7.51819 11.3169 7.5 11 7.5C10.6674 7.5 10.3394 7.52 10.0168 7.55762C9.57531 3.31712 5.98037 0 1.625 0H0.6875V5.625H1.625C3.17581 5.625 4.4375 6.88669 4.4375 8.4375V10.6407C3.26562 12.0899 2.5625 13.933 2.5625 15.9376C2.5625 20.2655 4.80706 24.0764 8.1875 26.2561V32H13.8125V28.1516C14.1219 28.1754 14.4346 28.1875 14.75 28.1875C17.3347 28.1875 19.4375 26.0847 19.4375 23.5V15.9375C19.4375 13.933 18.7344 12.0899 17.5625 10.6407V10.3125C17.5625 8.76169 18.8242 7.5 20.375 7.5H21.3125V1.875H20.375C19.4124 1.875 18.4711 2.04338 17.5625 2.377V0H11.9375ZM2.5625 3.84419V1.94175C5.59319 2.37719 7.96169 4.89125 8.17212 7.988C7.5105 8.22406 6.88662 8.54031 6.3125 8.92531V8.4375C6.3125 6.17381 4.69937 4.27975 2.5625 3.84419V3.84419ZM11.9375 30.125H10.0625V27.2447C10.6647 27.4979 11.2912 27.7036 11.9375 27.8577V30.125ZM17.5625 23.5C17.5625 25.0508 16.3008 26.3125 14.75 26.3125C13.7754 26.3125 12.8319 26.1757 11.9375 25.9202V24.4375C11.9375 22.6804 13.1311 21.1778 14.8401 20.7834L15.8177 20.5579L15.5265 19.5978C15.0438 18.0066 13.6015 16.9375 11.9375 16.9375V18.8125C12.4423 18.8125 12.9163 19.0201 13.2614 19.3626C12.6126 19.6739 12.0244 20.1092 11.5352 20.6436C10.6941 20.4589 10.0625 19.7082 10.0625 18.8125H8.1875C8.1875 20.3701 9.14219 21.7085 10.497 22.2744C10.2134 22.9559 10.0625 23.6919 10.0625 24.4375V25.1774C6.72613 23.4573 4.4375 19.9612 4.4375 15.9375C4.4375 12.6378 6.88556 9.89956 10.0608 9.4425C10.0251 10.4452 9.19875 11.25 8.1875 11.25V13.125C9.06519 13.125 9.87275 12.8211 10.5124 12.3141C11.2646 13.9002 12.881 15 14.75 15H15.6875V13.125H14.75C13.1992 13.125 11.9375 11.8633 11.9375 10.3125V9.44225C15.1136 9.89856 17.5625 12.6372 17.5625 15.9375V23.5ZM19.4375 3.82094V5.71919C17.7149 6.07031 16.3334 7.36944 15.8622 9.04562C15.2363 8.60275 14.5476 8.24331 13.8125 7.98263V1.875H15.6875V5.48306L17.0966 4.66288C17.8482 4.22538 18.6324 3.94369 19.4375 3.82094Z" fill="#FFB201"/>
</svg>
