<svg width="32" height="32" viewBox="0 0 32 32" fill="none" xmlns="http://www.w3.org/2000/svg">
<path d="M1.33398 14.6667L12.0007 14L10.0007 18.6667L12.6673 22.6667L16.0007 24L20.0007 22L21.334 18V14L30.6673 14.6667V29.3333H1.33398V14.6667Z" fill="white"/>
<path d="M16.4494 15.2123L16.4385 15.5754L16.7804 15.698C17.6782 16.0198 18.3203 16.879 18.3203 17.8828C18.3203 19.1618 17.279 20.2031 16 20.2031C14.721 20.2031 13.6797 19.1618 13.6797 17.8828C13.6797 16.872 14.331 16.0081 15.2386 15.6916L15.5641 15.5781L15.5738 15.2336C15.6944 10.968 16.8309 7.74655 18.8877 5.57878C19.9103 4.50109 21.1682 3.68167 22.6324 3.14503C24.0044 2.64218 25.5722 2.38281 27.2969 2.38281C27.5385 2.38281 27.7344 2.5787 27.7344 2.82031C27.7344 3.06192 27.5385 3.25781 27.2969 3.25781C23.9147 3.25781 21.2345 4.28338 19.3781 6.34221C17.5315 8.39019 16.5645 11.3897 16.4494 15.2123ZM17.4453 17.8828C17.4453 17.0854 16.7974 16.4375 16 16.4375C15.2026 16.4375 14.5547 17.0854 14.5547 17.8828C14.5547 18.6802 15.2026 19.3281 16 19.3281C16.7974 19.3281 17.4453 18.6802 17.4453 17.8828Z" fill="#FFB201" stroke="#FFB201"/>
<path d="M30.625 14.5547H30.125H21.9484H21.1569L21.4969 15.2695C21.7588 15.8201 21.9368 16.4087 22.0239 17.0163L22.0854 17.4453H22.5189H30.125H30.625V16.9453V15.0547V14.5547ZM10.5031 15.2695L10.8432 14.5547H10.0516H1.875H1.375V15.0547V16.9453V17.4453H1.875H9.48112H9.91456L9.97606 17.0163C10.0632 16.4086 10.2411 15.8201 10.5031 15.2695ZM1.375 28.2422V28.7422H1.875H30.125H30.625V28.2422V18.8203V18.3203H30.125H22.5189H22.0854L22.024 18.7495C21.6021 21.6961 19.0606 23.9688 16 23.9688C12.9394 23.9688 10.3979 21.6961 9.97602 18.7495L9.91458 18.3203H9.48106H1.875H1.375V18.8203V28.2422ZM20.2097 13.6797H31.0625C31.3041 13.6797 31.5 13.8756 31.5 14.1172V29.1797C31.5 29.4213 31.3041 29.6172 31.0625 29.6172H0.9375C0.695892 29.6172 0.5 29.4213 0.5 29.1797V14.1172C0.5 13.8756 0.695892 13.6797 0.9375 13.6797H11.7903C11.9628 13.6797 12.1193 13.7811 12.1897 13.9387C12.2601 14.0962 12.2313 14.2805 12.1163 14.409C11.2604 15.365 10.7891 16.5991 10.7891 17.8828C10.7891 20.7566 13.1262 23.0938 16 23.0938C18.8738 23.0938 21.2109 20.7566 21.2109 17.8828C21.2109 16.5991 20.7396 15.365 19.8837 14.409C19.7687 14.2805 19.7399 14.0962 19.8103 13.9387C19.8807 13.7811 20.0371 13.6797 20.2097 13.6797Z" fill="#FFB201" stroke="#FFB201"/>
<path d="M4.93829 20.7109C4.44792 20.7109 3.9781 21.1421 4.00079 21.6484C4.02354 22.1564 4.41273 22.5859 4.93829 22.5859C5.42867 22.5859 5.89848 22.1547 5.87579 21.6484C5.85304 21.1405 5.46385 20.7109 4.93829 20.7109Z" fill="#FFB201"/>
<path d="M8.46954 24.4766C7.97917 24.4766 7.50935 24.9078 7.53204 25.4141C7.55479 25.922 7.94398 26.3516 8.46954 26.3516C8.95992 26.3516 9.42973 25.9204 9.40704 25.4141C9.38429 24.9061 8.9951 24.4766 8.46954 24.4766Z" fill="#FFB201"/>
<path d="M24.657 20.7109C24.1667 20.7109 23.6969 21.1421 23.7195 21.6484C23.7423 22.1564 24.1315 22.5859 24.657 22.5859C25.1474 22.5859 25.6172 22.1547 25.5945 21.6484C25.5718 21.1405 25.1826 20.7109 24.657 20.7109Z" fill="#FFB201"/>
<path d="M27.2977 24.4766C26.8073 24.4766 26.3375 24.9078 26.3602 25.4141C26.3829 25.922 26.7721 26.3516 27.2977 26.3516C27.788 26.3516 28.2579 25.9204 28.2352 25.4141C28.2124 24.9061 27.8232 24.4766 27.2977 24.4766Z" fill="#FFB201"/>
</svg>
