<svg width="32" height="28" viewBox="0 0 32 28" fill="none" xmlns="http://www.w3.org/2000/svg">
<path d="M5.33398 10.6667L6.00065 6H26.0006L26.6673 10.6667L30.6673 10V22H26.6673V26H5.33398V22H1.33398V10.6667H5.33398Z" fill="white"/>
<path d="M20.9338 5.038V1.625C20.9338 1.07272 20.486 0.625 19.9338 0.625H12.0662C11.5139 0.625 11.0662 1.07272 11.0662 1.625V5.038H0.999999C0.447715 5.038 0 5.48572 0 6.038V26.375C0 26.9273 0.447715 27.375 1 27.375H31C31.5523 27.375 32 26.9273 32 26.375V6.038C32 5.48572 31.5523 5.038 31 5.038H20.9338ZM12.9412 2.5H19.0588V5.038H12.9412V2.5ZM1.875 6.913H4.6875V9.5H1.875V6.913ZM4.6875 25.5H1.875V22.913H4.6875V25.5ZM30.125 25.5H27.3125V22.913H30.125V25.5ZM30.125 21.038H25.4375V25.5H6.5625V21.038H1.875V11.375H6.5625V6.913H25.4375V11.375H30.125V21.038ZM30.125 9.5H27.3125V6.913H30.125V9.5Z" fill="#A27FFF"/>
</svg>
