<svg width="32" height="32" viewBox="0 0 32 32" fill="none" xmlns="http://www.w3.org/2000/svg">
<g clip-path="url(#clip0_3757_53517)">
<path d="M9.33268 13.3334L11.9993 12.6667L13.3327 16.6667L15.9993 17.3334L18.666 16.6667L19.9993 12.6667L22.666 13.3334L23.3327 17.3334L21.3327 24.0001L19.9993 26.0001L17.9993 27.3334L17.3327 22.6667L15.3327 21.3334L13.9993 27.3334L10.666 25.3334L9.99935 20.6667L8.66602 17.3334L9.33268 13.3334Z" fill="white"/>
<path d="M12 1.33325H20L18.6667 7.99992L12.6667 7.33325L12 1.33325Z" fill="white"/>
<path d="M22.2868 21.1251L22.671 20.3928C22.7991 20.1487 22.9451 19.9002 23.1113 19.6461M22.2868 21.1251L23.5297 19.9198M22.2868 21.1251H23.1138M22.2868 21.1251H23.1138M23.1113 19.6461L23.5297 19.9198M23.1113 19.6461C23.1112 19.6462 23.1112 19.6462 23.1112 19.6462L23.5297 19.9198M23.1113 19.6461C23.9167 18.4144 24.1449 16.9322 23.7454 15.4609L23.7423 15.4493M23.5297 19.9198C24.4157 18.5649 24.6637 16.9348 24.2279 15.3299V15.3299M23.7423 15.4493C23.7433 15.4532 23.7444 15.457 23.7454 15.4609L24.2277 15.3299L24.2279 15.3299M23.7423 15.4493L23.7279 15.3966V15.3299V15.3299H24.2279M23.7423 15.4493C23.2914 13.8056 21.9892 12.4742 20.3435 11.98L20.3435 11.98C20.2529 11.9528 20.1661 11.9365 20.0846 11.9244C20.0505 11.9194 20.0196 11.9154 19.9873 11.9112C19.9799 11.9103 19.9723 11.9093 19.9647 11.9083L20.4873 11.5011M24.2279 15.3299C23.7344 13.5129 22.3011 12.0458 20.4873 11.5011M20.4873 11.5011C20.3152 11.4494 20.1618 11.4296 20.0499 11.4152C20.0032 11.4091 19.9637 11.404 19.9332 11.3979C19.6579 11.3431 19.3724 11.4145 19.1553 11.5926C18.9383 11.7706 18.8125 12.0366 18.8125 12.3174V14.0627C18.8125 15.6135 17.5508 16.8752 16 16.8752C14.4492 16.8752 13.1875 15.6135 13.1875 14.0627V12.3174C13.1875 12.0366 13.0617 11.7707 12.8447 11.5926C12.6277 11.4146 12.3422 11.3431 12.067 11.3979C12.0365 11.404 11.997 11.4091 11.9501 11.4152C11.8378 11.4298 11.6835 11.4498 11.5123 11.5013L11.6561 11.9801M20.4873 11.5011L11.6561 11.9801M11.6561 11.9801C11.746 11.9531 11.833 11.9368 11.9151 11.9246M11.6561 11.9801L11.9151 11.9246M23.1138 21.1251H27.2499C27.4914 21.1251 27.6874 21.3209 27.6874 21.5627V31.0626C27.6874 31.3043 27.4915 31.5001 27.2499 31.5001H4.74999C4.50839 31.5001 4.3125 31.3043 4.3125 31.0626V21.5627C4.3125 21.3211 4.50839 21.1252 4.74999 21.1252H8.8861H9.71307L9.32885 20.3929C9.2008 20.1489 9.05481 19.9004 8.88863 19.6463L8.52511 19.884M23.1138 21.1251L8.52511 19.884M8.52511 19.884L8.88863 19.6463C8.08321 18.4145 7.85496 16.9324 8.25444 15.461M8.52511 19.884L8.25444 15.461M26.8124 30.625H26.3124H5.68749H5.18749V30.125V22.5001V22.0001H5.68749H9.46522H9.93575L9.96429 22.4697C9.97577 22.6586 9.97395 22.8472 9.95635 23.035C9.84589 24.2136 10.2375 25.3881 11.0282 26.2562L11.0282 26.2563C11.8202 27.126 12.9495 27.625 14.1249 27.625C14.3665 27.625 14.5624 27.4291 14.5624 27.1875V23.4376C14.5624 22.6445 15.2069 22.0001 15.9999 22.0001C16.793 22.0001 17.4374 22.6445 17.4374 23.4376V27.1875C17.4374 27.4291 17.6333 27.625 17.8749 27.625C19.0504 27.625 20.1797 27.126 20.9717 26.2563L20.9717 26.2563C21.7623 25.3881 22.1539 24.2137 22.0435 23.035L26.8124 30.625ZM26.8124 30.625V30.125M26.8124 30.625V30.125M26.8124 30.125V22.5001V22.0001H26.3124H22.5346H22.0639M26.8124 30.125L22.0639 22.0001M22.0639 22.0001L22.0356 22.4699M22.0639 22.0001L22.0356 22.4699M22.0356 22.4699C22.0242 22.6585 22.0259 22.8471 22.0435 23.0349L22.0356 22.4699ZM11.9151 11.9246C11.9495 11.9195 11.9806 11.9155 12.0131 11.9112M11.9151 11.9246L12.0131 11.9112M12.0131 11.9112C12.0205 11.9103 12.028 11.9093 12.0356 11.9083M12.0131 11.9112L12.0356 11.9083M12.0356 11.9083C12.0712 11.9037 12.1198 11.8972 12.1646 11.8883L12.0356 11.9083ZM8.25444 15.461C8.70222 13.8122 10.0064 12.4758 11.6561 11.9801L8.25444 15.461ZM19.4725 11.9791C19.5737 11.8961 19.707 11.8627 19.8354 11.8883L12.1647 11.8883C12.2931 11.8627 12.4263 11.8961 12.5275 11.9792C12.6288 12.0623 12.6875 12.1864 12.6875 12.3174V14.0627C12.6875 15.8896 14.173 17.3752 16 17.3752C17.8269 17.3752 19.3125 15.8896 19.3125 14.0627V12.3174C19.3125 12.1863 19.3712 12.0622 19.4725 11.9791ZM11.8125 13.6159V12.7533L11.064 13.182C10.1213 13.7218 9.38577 14.6338 9.09888 15.6901L9.57831 15.8203L9.09887 15.6902C8.76976 16.9024 8.95038 18.1418 9.62092 19.1673L9.62093 19.1673C10.5719 20.6215 10.9409 21.9062 10.8275 23.1166C10.7391 24.0605 11.0399 24.9697 11.6751 25.6671C12.0465 26.075 12.5108 26.3794 13.0205 26.5599L13.6874 26.7961V26.0886V23.4376C13.6874 22.1629 14.7253 21.1251 15.9999 21.1251C17.2746 21.1251 18.3124 22.1629 18.3124 23.4376V26.0886V26.7961L18.9793 26.5599C19.4891 26.3794 19.9534 26.0749 20.3248 25.6672L19.9646 25.3391L20.3248 25.6672C20.9599 24.9697 21.2608 24.0605 21.1723 23.1166L20.6745 23.1633L21.1723 23.1166C21.0589 21.9062 21.428 20.6215 22.3789 19.1673L21.9605 18.8937L22.3789 19.1673C23.0495 18.1418 23.2302 16.9025 22.901 15.6901L22.901 15.6901C22.6141 14.6338 21.8784 13.7219 20.9359 13.182L20.1874 12.7533V13.6159V14.0626C20.1874 16.3711 18.3085 18.2501 15.9999 18.2501C13.6914 18.2501 11.8125 16.3711 11.8125 14.0626V13.6159Z" fill="#1EBCB4" stroke="#1EBCB4" stroke-width="0.999994"/>
<path d="M19.8355 0.606412L19.8355 0.606423C20.0401 0.647125 20.1876 0.826763 20.1876 1.03547V4.68766C20.1876 6.9962 18.3086 8.87516 16.0001 8.87516C13.6915 8.87516 11.8126 6.99621 11.8125 4.68766C11.8125 4.68765 11.8125 4.68765 11.8125 4.68764V1.03547C11.8125 0.826797 11.9599 0.647152 12.1646 0.606407L12.1646 0.606406C13.4394 0.352584 14.6878 0.557175 15.7491 1.17316L16 1.31882L16.251 1.17317C17.3124 0.557237 18.5608 0.352703 19.8355 0.606412ZM13.183 1.37631L13.1853 1.87628H12.6876V4.68766C12.6876 6.51461 14.1732 8.00015 16.0001 8.00015C17.8271 8.00015 19.3126 6.51461 19.3126 4.68766V1.87635V1.38049L18.8168 1.37637C17.8912 1.36866 17.0042 1.65414 16.2639 2.21356L16.2639 2.21358C16.1078 2.33148 15.8924 2.3315 15.7363 2.21351C15.1318 1.75671 14.4291 1.48204 13.6876 1.40126V1.37629H13.26C13.2344 1.37607 13.2087 1.37607 13.183 1.37631Z" fill="#1EBCB4" stroke="#1EBCB4" stroke-width="0.999994"/>
<path d="M6.3157 10.622L6.31563 10.6219L4.44064 8.74706C4.44064 8.74706 4.44064 8.74705 4.44063 8.74705C4.26978 8.57619 4.26979 8.29921 4.44064 8.12835C4.61152 7.95747 4.88854 7.95752 5.05932 8.12832L5.05935 8.12835L5.33398 8.40298L6.18753 9.25653V8.04943V6.56274C6.18753 6.32113 6.38342 6.12524 6.62503 6.12524C6.86663 6.12524 7.06253 6.32113 7.06253 6.56274V8.04943V9.25653L7.91608 8.40298L8.1907 8.12835C8.36158 7.95747 8.6386 7.95752 8.80938 8.12832L8.80941 8.12835C8.98027 8.29922 8.98027 8.5762 8.80941 8.74706L6.93454 10.6219L6.93448 10.622C6.85144 10.7051 6.73408 10.7502 6.62509 10.7502C6.51595 10.7502 6.39706 10.7034 6.3157 10.622Z" fill="#1EBCB4" stroke="#1EBCB4" stroke-width="0.999994"/>
<path d="M25.0657 10.622L25.0656 10.6219L23.1906 8.74706C23.1906 8.74706 23.1906 8.74705 23.1906 8.74705C23.0198 8.57618 23.0198 8.29921 23.1906 8.12836C23.3615 7.95747 23.6386 7.95752 23.8093 8.12832L23.8094 8.12836L24.084 8.40298L24.9375 9.25652V8.04943V6.56274C24.9375 6.32114 25.1334 6.12524 25.375 6.12524C25.6167 6.12524 25.8125 6.32114 25.8125 6.56274V8.04943V9.25652L26.6661 8.40298L26.9407 8.12836L26.8125 8.00018L26.9407 8.12836C27.1116 7.95747 27.3886 7.95752 27.5594 8.12832L27.5594 8.12836C27.7303 8.29922 27.7303 8.5762 27.5594 8.74706L25.6846 10.6219L25.6845 10.622C25.6017 10.7048 25.4836 10.7502 25.3751 10.7502C25.2649 10.7502 25.1489 10.7052 25.0657 10.622Z" fill="#1EBCB4" stroke="#1EBCB4" stroke-width="0.999994"/>
</g>
<defs>
<clipPath id="clip0_3757_53517">
<rect width="32" height="32" fill="white"/>
</clipPath>
</defs>
</svg>
