<svg width="32" height="32" viewBox="0 0 32 32" fill="none" xmlns="http://www.w3.org/2000/svg">
<g clip-path="url(#clip0_3757_53500)">
<circle cx="16" cy="9.33325" r="8" fill="white"/>
<path d="M20.1874 16.454C21.9883 16.365 23.0964 15.2042 23.0964 13.3795C23.0964 13.2431 23.0885 13.1063 23.0727 12.9708C24.2805 12.1993 24.7999 11.1665 24.7999 9.56547C24.7999 7.9649 24.2804 6.93197 23.0727 6.16015C23.0885 6.02459 23.0964 5.8879 23.0964 5.75153C23.0964 3.92684 21.9883 2.76596 20.1874 2.67702C19.705 1.77702 18.7616 1.21852 17.6704 1.2034C17.0342 1.19502 16.5132 1.3864 16.1206 1.77365C16.0789 1.81483 16.0389 1.85815 16.0005 1.90346C15.9622 1.85815 15.9223 1.81483 15.8805 1.77365C15.4878 1.3864 14.9659 1.1949 14.3307 1.2034C13.2396 1.21858 12.2963 1.7769 11.8137 2.67702C10.0128 2.76596 8.90467 3.92684 8.90467 5.75153C8.90467 5.8879 8.91267 6.02465 8.92842 6.16015C7.72061 6.93165 7.20117 7.96453 7.20117 9.56553C7.20117 11.1661 7.72067 12.199 8.92842 12.9708C8.91261 13.1064 8.90467 13.2431 8.90467 13.3795C8.90467 15.2042 10.0128 16.365 11.8137 16.454C12.296 17.354 13.2395 17.9125 14.3307 17.9276C14.3447 17.9278 14.3587 17.9279 14.3726 17.9279C14.9893 17.9279 15.4965 17.7361 15.8805 17.3574C15.9222 17.3162 15.9622 17.2729 16.0005 17.2275C16.0389 17.2729 16.0788 17.3162 16.1206 17.3574C16.5046 17.7361 17.0117 17.9279 17.6284 17.9279C17.6424 17.9279 17.6564 17.9278 17.6704 17.9276C18.7615 17.9124 19.7048 17.3541 20.1874 16.454ZM15.3756 15.0427C15.3756 15.7342 15.2467 16.2269 15.0029 16.4674C14.8552 16.613 14.6404 16.682 14.3481 16.6777C13.6984 16.6687 13.1458 16.3379 12.8881 15.8096C12.9757 15.6457 13.1071 15.5092 13.2715 15.4141C13.5025 15.2805 13.7715 15.245 14.0288 15.3142C14.362 15.4038 14.705 15.206 14.7945 14.8727C14.884 14.5393 14.6864 14.1965 14.353 14.1069C13.7725 13.9511 13.1663 14.031 12.6458 14.332C12.2828 14.5419 11.9917 14.8417 11.7956 15.2011C10.7065 15.1238 10.1547 14.512 10.1547 13.3795C10.1547 13.2355 10.1685 13.0912 10.1956 12.9501C10.2665 12.5807 10.096 12.207 9.77167 12.0206C8.7968 11.4593 8.4513 10.8169 8.4513 9.56553C8.4513 8.31403 8.7968 7.67153 9.7713 7.11065C10.096 6.92403 10.2665 6.55047 10.1955 6.18046C10.1684 6.03971 10.1547 5.8954 10.1547 5.75153C10.1547 4.53721 10.7889 3.92152 12.0397 3.92152H12.0472C12.0655 3.92152 12.0837 3.9209 12.1017 3.91984C12.4218 4.05446 12.602 4.41127 12.5097 4.75859C12.421 5.09215 12.6195 5.43446 12.9531 5.52321C13.0069 5.53753 13.0609 5.54434 13.1141 5.54434C13.3905 5.54434 13.6433 5.35959 13.7177 5.07978C13.9224 4.3104 13.6387 3.52321 13.0587 3.05102C13.3522 2.6824 13.8178 2.46065 14.3482 2.45327C14.6409 2.44908 14.8552 2.51802 15.0029 2.66365C15.2467 2.90409 15.3756 3.39677 15.3756 4.0884V15.0427ZM19.4915 14.3725C19.5802 14.0389 19.3817 13.6966 19.0481 13.6078C18.7146 13.5191 18.3722 13.7177 18.2835 14.0512C18.0789 14.8207 18.3625 15.6078 18.9425 16.08C18.649 16.4486 18.1834 16.6704 17.653 16.6777C17.3602 16.6827 17.146 16.613 16.9983 16.4674C16.7545 16.2269 16.6256 15.7342 16.6256 15.0427V4.0884C16.6256 3.39684 16.7545 2.90415 16.9984 2.66371C17.146 2.51808 17.3602 2.44908 17.6531 2.45334C18.3028 2.46233 18.8554 2.79315 19.1131 3.32146C19.0255 3.4854 18.8941 3.6219 18.7297 3.71696C18.4987 3.85052 18.2298 3.88602 17.9724 3.8169C17.6392 3.72734 17.2962 3.92502 17.2067 4.2584C17.1172 4.59171 17.3149 4.93459 17.6482 5.02409C17.8421 5.07615 18.0388 5.1019 18.2343 5.1019C18.624 5.1019 19.0088 4.99946 19.3554 4.79903C19.7184 4.58909 20.0095 4.28934 20.2056 3.9299C21.2947 4.00715 21.8465 4.61896 21.8465 5.75153C21.8465 5.89553 21.8327 6.03984 21.8056 6.1809C21.7347 6.55034 21.9052 6.92397 22.2295 7.1104C23.2044 7.67165 23.5499 8.31409 23.5499 9.56547C23.5499 10.817 23.2044 11.4595 22.2299 12.0203C21.9052 12.207 21.7347 12.5805 21.8056 12.9505C21.8327 13.0913 21.8464 13.2356 21.8464 13.3795C21.8464 14.5938 21.2122 15.2095 19.9614 15.2095H19.9565C19.9373 15.2094 19.9182 15.21 19.8992 15.2111C19.5794 15.0765 19.3992 14.7197 19.4915 14.3725Z" fill="#FFB201" stroke="#FFB201" stroke-width="0.5"/>
<path d="M12.4557 8.28638C11.7164 8.28638 11.0737 8.70819 10.7784 9.38719C10.4847 10.0624 10.6134 10.8156 11.1143 11.3531C11.1384 11.3789 11.163 11.4044 11.1882 11.4295C11.3102 11.5513 11.47 11.6122 11.6297 11.6122C11.7899 11.6122 11.95 11.551 12.0721 11.4288C12.3159 11.1845 12.3156 10.7888 12.0714 10.5449C12.0567 10.5303 12.0424 10.5154 12.0286 10.5006C11.7937 10.2485 11.8896 9.96625 11.9247 9.88575C11.9603 9.80382 12.104 9.53638 12.4558 9.53638C12.801 9.53638 13.0808 9.25656 13.0808 8.91138C13.0807 8.56619 12.8009 8.28638 12.4557 8.28638Z" fill="#FFB201" stroke="#FFB201" stroke-width="0.5"/>
<path d="M19.9294 10.5448C19.685 10.7887 19.6848 11.1844 19.9287 11.4287C20.0508 11.551 20.2109 11.6121 20.371 11.6121C20.5308 11.6121 20.6906 11.5512 20.8126 11.4294C20.8377 11.4043 20.8624 11.3788 20.8865 11.3529C21.3874 10.8156 21.516 10.0624 21.2223 9.38719C20.927 8.70819 20.2842 8.28638 19.5449 8.28638C19.1997 8.28638 18.9199 8.56619 18.9199 8.91138C18.9199 9.25656 19.1997 9.53638 19.5449 9.53638C19.8967 9.53638 20.0404 9.80381 20.076 9.88575C20.1111 9.96625 20.207 10.2485 19.9722 10.5004C19.9583 10.5154 19.944 10.5303 19.9294 10.5448Z" fill="#FFB201" stroke="#FFB201" stroke-width="0.5"/>
<path d="M10.4166 18.022L6.05952 13.7287V9.10623C6.05952 8.06192 5.2099 7.21229 4.16559 7.21229C4.15571 7.21229 4.10121 7.21342 4.10009 7.21342C3.99327 7.21711 3.88721 7.22998 3.78315 7.25154V6.78948C3.78315 5.75611 2.99109 4.90936 1.9799 4.86179C1.44227 4.83623 0.894773 5.03723 0.515836 5.39879C0.192836 5.70679 0.0150232 6.10823 0.0150232 6.52904C0.0150232 8.00317 0.0060232 14.8707 2.31989e-05 17.0205C-0.000101801 17.0713 0.000273199 17.1217 0.0012732 17.172C0.0305232 18.7038 0.709398 20.1909 1.86377 21.2519C1.87365 21.261 1.88384 21.2698 1.89434 21.2782L6.76784 25.2093V30.1715C6.76784 30.5167 7.04765 30.7965 7.39284 30.7965H11.7861C12.1313 30.7965 12.4111 30.5167 12.4111 30.1715V22.7872C12.4111 21.0077 11.6841 19.2709 10.4166 18.022ZM4.13934 8.46279L4.16552 8.46229C4.52059 8.46229 4.80946 8.75117 4.80946 9.10623V13.016C4.4679 12.9599 4.11402 12.9924 3.78302 13.1154V8.58804C3.88684 8.51111 4.00915 8.46798 4.13934 8.46279ZM11.1611 29.5466H8.01783V24.9105C8.01783 24.7215 7.93234 24.5427 7.78521 24.424L2.69534 20.3184C1.79984 19.4882 1.27365 18.3339 1.25102 17.1484C1.25027 17.1071 1.2499 17.0656 1.25002 17.0239C1.25596 14.8735 1.26502 8.00361 1.26502 6.52904C1.26502 6.45104 1.30321 6.37511 1.37859 6.30317C1.51109 6.17679 1.72377 6.10148 1.92109 6.11036C2.25852 6.12623 2.53309 6.43086 2.53309 6.78942V14.4717C2.51202 14.5475 2.49527 14.625 2.48296 14.7039C2.3849 15.3331 2.59196 15.9793 3.03709 16.4336L7.43927 21.0388C7.67777 21.2883 8.0734 21.2972 8.32296 21.0587C8.57246 20.8202 8.5814 20.4245 8.34283 20.175L3.93784 15.5669C3.93571 15.5646 3.93352 15.5624 3.93134 15.5602C3.75752 15.3837 3.67977 15.1418 3.71802 14.8965C3.74252 14.7397 3.81334 14.5966 3.92402 14.481C3.94402 14.4627 3.98496 14.4257 4.0059 14.4068C4.31602 14.163 4.75584 14.1905 5.03446 14.4734C5.03665 14.4756 5.03884 14.4777 5.04102 14.4799L9.53921 18.9122C10.5699 19.9278 11.161 21.3401 11.161 22.7871V29.5466H11.1611Z" fill="#FFB201" stroke="#FFB201" stroke-width="0.5"/>
<path d="M31.986 6.52903C31.986 6.10822 31.8082 5.70678 31.4852 5.39872C31.1063 5.03716 30.5593 4.83666 30.0212 4.86172C29.01 4.90928 28.2178 5.75603 28.2178 6.78941V7.25141C28.114 7.22991 28.0082 7.21703 27.9018 7.21341C27.9005 7.21341 27.8454 7.21222 27.8353 7.21222C26.791 7.21222 25.9414 8.06184 25.9414 9.10616V13.7286L21.5843 18.0219C20.3168 19.2708 19.5898 21.0077 19.5898 22.7872V30.1715C19.5898 30.5167 19.8697 30.7965 20.2148 30.7965H24.6081C24.9533 30.7965 25.2331 30.5167 25.2331 30.1715V25.2093L30.1066 21.2782C30.1171 21.2698 30.1273 21.261 30.1372 21.2519C31.2915 20.1908 31.9705 18.7038 31.9997 17.1717C32.0006 17.1217 32.001 17.0713 32.0008 17.0204C31.995 14.8707 31.986 8.00316 31.986 6.52903ZM27.8313 8.46222L27.8619 8.46278C27.992 8.46797 28.1142 8.51109 28.2179 8.58803V13.1151C27.8871 12.9922 27.5332 12.9598 27.1915 13.0159V9.10616C27.1915 8.75116 27.4803 8.46228 27.8313 8.46222ZM30.75 17.1482C30.7273 18.3339 30.2012 19.4883 29.3057 20.3185L24.2157 24.424C24.0687 24.5427 23.9831 24.7215 23.9831 24.9105V29.5466H20.8398V22.7872C20.8398 21.3403 21.431 19.9279 22.4617 18.9123L26.9598 14.48C26.962 14.4778 26.9642 14.4757 26.9663 14.4735C27.2452 14.1905 27.6856 14.163 27.9947 14.4066C28.0156 14.4255 28.057 14.463 28.077 14.4812C28.1873 14.5961 28.2583 14.7393 28.2828 14.8965C28.321 15.1418 28.2433 15.3838 28.0695 15.5603C28.0677 15.562 28.066 15.5638 28.0643 15.5656L25.844 17.8747C25.6048 18.1235 25.6125 18.5191 25.8613 18.7584C26.1101 18.9976 26.5058 18.99 26.7451 18.7411L28.9632 16.4342C29.4087 15.9798 29.616 15.3334 29.5178 14.7038C29.5055 14.625 29.4888 14.5475 29.4677 14.4717V6.78941C29.4677 6.43084 29.7423 6.12622 30.0797 6.11034C30.2772 6.10147 30.4897 6.17678 30.6222 6.30316C30.6976 6.37503 30.7358 6.45103 30.7358 6.52903C30.7358 8.00366 30.7448 14.8735 30.7508 17.0238C30.751 17.0656 30.7507 17.1072 30.75 17.1482Z" fill="#FFB201" stroke="#FFB201" stroke-width="0.5"/>
<path d="M24.908 20.1173C24.8056 19.8677 24.5437 19.7096 24.275 19.7339C24.0171 19.7573 23.7942 19.944 23.7277 20.1945C23.6615 20.4435 23.7578 20.7137 23.9672 20.8643C24.1787 21.0164 24.4724 21.0187 24.6864 20.8701C24.9252 20.7044 25.0199 20.386 24.908 20.1173Z" fill="#FFB201" stroke="#FFB201" stroke-width="0.5"/>
</g>
<defs>
<clipPath id="clip0_3757_53500">
<rect width="32" height="32" fill="white"/>
</clipPath>
</defs>
</svg>
