<svg width="32" height="32" viewBox="0 0 32 32" fill="none" xmlns="http://www.w3.org/2000/svg">
<g clip-path="url(#clip0_3757_53522)">
<path d="M10 17.3333L12 17.9999H15.3333L16 20.6666L12.6667 23.9999L10 22.6666L8 19.9999L10 17.3333Z" fill="white"/>
<path d="M11.3327 10.0001L17.9993 12.0001L21.9993 12.6667L21.3327 0.666748L25.3327 1.33341V17.3334L16.666 15.3334L10.666 12.0001L11.3327 10.0001Z" fill="white"/>
<path d="M15.3333 0.666667L20 0L19.3333 4H14L15.3333 0.666667Z" fill="white"/>
<path d="M9.43172 27.2176C8.87066 28.5658 8.56572 30.0068 8.53252 31.4667C8.53252 31.7612 8.7713 32 9.06585 32H25.0659C25.2227 32 25.3715 31.9309 25.4728 31.8112C25.5741 31.6915 25.6176 31.5333 25.5917 31.3787C25.548 31.112 24.4877 24.8507 22.3432 20.5621C21.8527 19.4752 21.6035 18.2949 21.6125 17.1024C22.7409 17.3273 23.8802 17.4928 25.0259 17.5984L25.0659 17.6C25.3105 17.6 25.5237 17.4336 25.5832 17.1963C26.4424 13.7611 26.2867 9.00481 26.1837 5.85761C26.1565 5.02027 26.1304 4.29387 26.1304 3.74561C26.1289 2.69416 25.7189 1.68443 24.9869 0.929607C24.4502 0.34722 23.6977 0.0110811 22.9059 6.61751e-06H16.6216C16.0607 -0.00160835 15.5404 0.29247 15.2525 0.773873C14.5446 1.98604 13.5829 3.03073 12.4333 3.83627C12.1508 4.02296 11.8499 4.18005 11.5352 4.30507C10.2664 4.79986 9.45889 6.05353 9.53305 7.41334C9.56921 8.42136 10.0091 9.37252 10.7539 10.0528C10.6423 10.0926 10.5333 10.139 10.4275 10.192C9.77317 10.5077 9.29664 11.1023 9.13092 11.8096C6.65866 13.4386 5.21802 16.2416 5.33252 19.2C5.33252 23.6267 7.46852 25.9845 9.43172 27.2176ZM16.1645 1.32587C16.2608 1.16521 16.4343 1.06682 16.6216 1.06667H19.1635C19.0525 2.09974 18.5768 4.26667 16.5325 4.26667C15.6631 4.26625 14.7956 4.18393 13.9416 4.02081C14.8117 3.23735 15.5609 2.32916 16.1645 1.32587ZM10.5992 7.37707C10.5384 6.46753 11.0769 5.62438 11.9277 5.29707C12.2308 5.17336 12.5231 5.02495 12.8019 4.85334C14.0207 5.17204 15.2754 5.33335 16.5352 5.33334C19.1971 5.33334 20.0909 2.78561 20.2419 1.06667H21.1971C20.3448 4.58401 20.1721 8.23175 20.6883 11.8139C19.8628 11.6546 19.0274 11.5518 18.188 11.5061C17.5074 11.486 16.8309 11.3925 16.1704 11.2272C15.7224 11.0779 15.2637 10.8896 14.8243 10.7077C14.131 10.3952 13.4102 10.1477 12.6712 9.96854C11.5029 9.62848 10.6738 8.59157 10.5992 7.37707ZM10.9043 11.144C11.3644 10.9316 11.8824 10.8792 12.3757 10.9952C12.4194 11.0097 12.4647 11.0189 12.5107 11.0224C13.1631 11.1923 13.8 11.417 14.4147 11.6939C14.8733 11.8827 15.3475 12.0784 15.8307 12.2395C16.5739 12.4361 17.3373 12.5469 18.1059 12.5696C19.6253 12.6832 21.3485 12.8117 22.6125 13.76C22.765 13.8743 22.9668 13.8987 23.142 13.8238C23.3173 13.749 23.4392 13.5863 23.462 13.3971C23.4848 13.208 23.405 13.021 23.2525 12.9067C22.816 12.5866 22.3357 12.331 21.8264 12.1477C21.2111 8.46189 21.3687 4.68836 22.2893 1.06667H22.9059C23.4102 1.0827 23.8866 1.30222 24.2264 1.67521C24.756 2.23069 25.0559 2.96593 25.0659 3.73334C25.0659 4.30294 25.0899 5.04161 25.1192 5.89227C25.2157 8.84267 25.3592 13.2336 24.6547 16.4891C23.0392 16.3083 17.4184 15.52 12.5805 12.8976C11.9248 12.3189 11.1209 11.9342 10.2589 11.7867C10.3951 11.5062 10.6227 11.2805 10.9043 11.1467V11.144ZM9.59119 12.8H9.59919C10.446 12.8231 11.2573 13.1457 11.8888 13.7104C11.9249 13.7463 11.9658 13.777 12.0104 13.8016C14.6963 15.2135 17.564 16.2487 20.5325 16.8779C20.4979 18.3113 20.7897 19.7338 21.3859 21.0379C23.0781 24.4171 24.1 29.2347 24.4259 30.9333H9.62639C9.70845 29.8345 9.96033 28.755 10.3731 27.7333C12.0253 28.5017 13.8277 28.8933 15.6499 28.88C16.1434 28.88 16.6366 28.8526 17.1272 28.7979C17.3166 28.7767 17.4803 28.6561 17.5567 28.4815C17.6331 28.3069 17.6105 28.1049 17.4975 27.9514C17.3845 27.798 17.1982 27.7165 17.0088 27.7376C14.7305 28.0189 12.4204 27.6025 10.3837 26.5435C8.56505 25.5301 6.39919 23.4352 6.39919 19.2C6.39919 16.4229 7.48132 14.2768 9.59119 12.8Z" fill="#A27FFF" stroke="#A27FFF" stroke-width="0.5"/>
<path d="M10.9555 23.5925C11.2585 23.8453 11.5806 24.1146 11.9193 24.4048C12.1188 24.5755 12.413 24.5755 12.6126 24.4048C12.9513 24.1146 13.2734 23.8453 13.5763 23.5925C15.3598 22.1066 16.5331 21.1253 16.5331 19.6042C16.558 18.9477 16.3176 18.3087 15.8662 17.8313C15.4147 17.354 14.7901 17.0784 14.1331 17.0667C13.4269 17.0657 12.7516 17.3561 12.2665 17.8693C11.7814 17.3561 11.106 17.0657 10.3998 17.0667C9.74285 17.0784 9.11826 17.354 8.66677 17.8313C8.21529 18.3087 7.97491 18.9477 7.9998 19.6042C7.9998 21.1253 9.17314 22.1066 10.9555 23.5925ZM10.3998 18.1333C10.9829 18.1537 11.5118 18.4806 11.7907 18.993C11.8815 19.1707 12.0638 19.2828 12.2633 19.2837H12.2665C12.4665 19.2829 12.6495 19.1708 12.7411 18.993C13.0202 18.4802 13.5496 18.1532 14.1331 18.1333C14.5076 18.1442 14.8615 18.3072 15.1131 18.5848C15.3647 18.8624 15.4923 19.2305 15.4665 19.6042C15.4665 20.6261 14.4985 21.4346 12.8942 22.7738C12.6931 22.9418 12.4835 23.1162 12.2665 23.2997C12.0494 23.1162 11.8398 22.9418 11.6387 22.7738C10.0345 21.4346 9.06647 20.6261 9.06647 19.6042C9.04062 19.2305 9.16822 18.8624 9.41983 18.5848C9.67144 18.3072 10.0253 18.1442 10.3998 18.1333Z" fill="#A27FFF" stroke="#A27FFF" stroke-width="0.5"/>
</g>
<defs>
<clipPath id="clip0_3757_53522">
<rect width="32" height="32" fill="white"/>
</clipPath>
</defs>
</svg>
