<svg width="32" height="32" viewBox="0 0 32 32" fill="none" xmlns="http://www.w3.org/2000/svg">
<path d="M16.0013 2.6665C8.64387 2.6665 2.66797 8.64241 2.66797 15.9998C2.66797 23.3573 8.64387 29.3332 16.0013 29.3332C23.3587 29.3332 29.3346 23.3573 29.3346 15.9998C29.3346 8.64241 23.3587 2.6665 16.0013 2.6665ZM16.0013 28.1765C9.28644 28.1765 3.8246 22.7147 3.8246 15.9998C3.8246 9.28498 9.28644 3.82313 16.0013 3.82313C22.7162 3.82313 28.178 9.28498 28.178 15.9998C28.178 22.7147 22.7162 28.1765 16.0013 28.1765Z" fill="#1EBCB4"/>
<path fill-rule="evenodd" clip-rule="evenodd" d="M2.33398 15.9999C2.33398 8.45839 8.45913 2.33325 16.0007 2.33325C23.5422 2.33325 29.6673 8.45839 29.6673 15.9999C29.6673 23.5414 23.5422 29.6666 16.0007 29.6666C8.45913 29.6666 2.33398 23.5414 2.33398 15.9999ZM16.0007 2.99992C8.82732 2.99992 3.00065 8.82658 3.00065 15.9999C3.00065 23.1733 8.82732 28.9999 16.0007 28.9999C23.174 28.9999 29.0006 23.1733 29.0006 15.9999C29.0006 8.82658 23.174 2.99992 16.0007 2.99992ZM16.0007 4.15655C9.46989 4.15655 4.15728 9.46915 4.15728 15.9999C4.15728 22.5307 9.46989 27.8433 16.0007 27.8433C22.5314 27.8433 27.844 22.5307 27.844 15.9999C27.844 9.46915 22.5314 4.15655 16.0007 4.15655ZM3.49061 15.9999C3.49061 9.10096 9.1017 3.48988 16.0007 3.48988C22.8996 3.48988 28.5107 9.10096 28.5107 15.9999C28.5107 22.8989 22.8996 28.51 16.0007 28.51C9.1017 28.51 3.49061 22.8989 3.49061 15.9999Z" fill="#1EBCB4"/>
<rect x="13.332" y="9.33325" width="5.33333" height="13.3333" fill="white"/>
<rect x="9.33203" y="18.6665" width="5.33333" height="13.3333" transform="rotate(-90 9.33203 18.6665)" fill="white"/>
<path d="M22.9403 13.1082H18.8921V9.06C18.8921 8.73872 18.635 8.48169 18.3137 8.48169H13.6872C13.366 8.48169 13.1089 8.73872 13.1089 9.06V13.1082H9.06073C8.73945 13.1082 8.48242 13.3652 8.48242 13.6865V18.313C8.48242 18.6343 8.73945 18.8913 9.06073 18.8913H13.1089V22.9395C13.1089 23.2608 13.366 23.5178 13.6872 23.5178H18.3137C18.635 23.5178 18.8921 23.2608 18.8921 22.9395V18.8913H22.9403C23.2615 18.8913 23.5186 18.6343 23.5186 18.313V13.6865C23.4864 13.3652 23.2294 13.1082 22.9403 13.1082ZM22.3941 17.7347H22.3619H18.3137C17.9925 17.7347 17.7354 17.9917 17.7354 18.313V22.3612H14.2656V18.313C14.2656 17.9917 14.0085 17.7347 13.6872 17.7347H9.63905V14.2648H13.6872C14.0085 14.2648 14.2656 14.0078 14.2656 13.6865V9.63832H17.7676V13.6865C17.7676 14.0078 18.0246 14.2648 18.3459 14.2648H22.3941V17.7347Z" fill="#1EBCB4"/>
<path fill-rule="evenodd" clip-rule="evenodd" d="M12.7749 9.06008C12.7749 8.5547 13.1812 8.14844 13.6866 8.14844H18.3131C18.8185 8.14844 19.2247 8.5547 19.2247 9.06008V12.7749H22.9396C23.429 12.7749 23.8035 13.1923 23.8496 13.6534L23.8512 13.67V18.3131C23.8512 18.8185 23.445 19.2247 22.9396 19.2247H19.2247V22.9396C19.2247 23.445 18.8185 23.8513 18.3131 23.8513H13.6866C13.1812 23.8513 12.7749 23.445 12.7749 22.9396V19.2247H9.06008C8.5547 19.2247 8.14844 18.8185 8.14844 18.3131V13.6866C8.14844 13.1812 8.5547 12.7749 9.06008 12.7749H12.7749V9.06008ZM13.6866 8.8151C13.5494 8.8151 13.4416 8.92289 13.4416 9.06008V13.4416H9.06008C8.92289 13.4416 8.8151 13.5494 8.8151 13.6866V18.3131C8.8151 18.4503 8.92289 18.5581 9.06008 18.5581H13.4416V22.9396C13.4416 23.0768 13.5494 23.1846 13.6866 23.1846H18.3131C18.4503 23.1846 18.5581 23.0768 18.5581 22.9396V18.5581H22.9396C23.0768 18.5581 23.1846 18.4503 23.1846 18.3131V13.7058C23.1609 13.5334 23.0262 13.4416 22.9396 13.4416H18.5581V9.06008C18.5581 8.92289 18.4503 8.8151 18.3131 8.8151H13.6866ZM13.9316 9.30506H18.1002V13.6866C18.1002 13.8238 18.208 13.9316 18.3452 13.9316H22.7268V18.0681H18.3131C18.1759 18.0681 18.0681 18.1759 18.0681 18.3131V22.6946H13.9316V18.3131C13.9316 18.1759 13.8238 18.0681 13.6866 18.0681H9.30506V13.9316H13.6866C13.8238 13.9316 13.9316 13.8238 13.9316 13.6866V9.30506ZM14.5982 9.97173V13.6866C14.5982 14.192 14.192 14.5982 13.6866 14.5982H9.97173V17.4015H13.6866C14.192 17.4015 14.5982 17.8077 14.5982 18.3131V22.028H17.4014V18.3131C17.4014 17.8077 17.8077 17.4015 18.3131 17.4015H22.0601V14.5982H18.3452C17.8398 14.5982 17.4336 14.192 17.4336 13.6866V9.97173H14.5982Z" fill="#1EBCB4"/>
</svg>
