<svg width="181" height="201" viewBox="0 0 181 201" fill="none" xmlns="http://www.w3.org/2000/svg">
<path d="M239.737 101.2C233.011 89.2209 222.751 79.6107 210.359 73.6818C197.967 67.7529 184.046 65.7946 170.499 68.0744C156.952 70.3541 144.439 76.7608 134.67 86.4191C124.901 96.0774 118.351 108.516 115.917 122.036C113.483 135.557 115.282 149.499 121.069 161.958C126.856 174.417 136.348 184.786 148.249 191.648C160.15 198.51 173.88 201.53 187.562 200.296C201.244 199.062 214.211 193.634 224.692 184.753L201.247 157.082C196.464 161.134 190.547 163.611 184.304 164.174C178.06 164.737 171.795 163.359 166.365 160.228C160.934 157.097 156.603 152.366 153.962 146.68C151.321 140.995 150.5 134.633 151.611 128.463C152.722 122.294 155.71 116.618 160.168 112.21C164.626 107.803 170.336 104.88 176.518 103.839C182.7 102.799 189.052 103.693 194.707 106.398C200.361 109.104 205.043 113.489 208.112 118.955L239.737 101.2Z" fill="#A27FFF"/>
<path d="M47.7129 66.7081C47.7129 49.0161 54.741 32.0486 67.2512 19.5385C79.7614 7.02828 96.7288 0.0001297 114.421 0.0001297C132.113 0.0001297 149.08 7.02827 161.591 19.5384C174.101 32.0486 181.129 49.0161 181.129 66.7081L114.421 66.7081L47.7129 66.7081Z" fill="#1EBCB4"/>
<path d="M0 66.2669C-1.54669e-06 83.959 7.02814 100.926 19.5383 113.437C32.0485 125.947 49.0159 132.975 66.708 132.975C84.4 132.975 101.367 125.947 113.878 113.437C126.388 100.926 133.416 83.959 133.416 66.2669L66.708 66.2669L0 66.2669Z" fill="#FFB201"/>
</svg>
